<mxfile host="app.diagrams.net" modified="2024-03-05T15:16:46.608Z" agent="Mozilla/5.0 (Windows NT 10.0; Win64; x64) AppleWebKit/537.36 (KHTML, like Gecko) Chrome/122.0.0.0 Safari/537.36" etag="gV8cGWf3DVZTrTcgchIE" version="24.0.0" type="device">
  <diagram name="Страница — 1" id="2QSt0BCuGMfHpBRcr5sU">
    <mxGraphModel dx="2117" dy="530" grid="0" gridSize="10" guides="1" tooltips="1" connect="1" arrows="1" fold="1" page="1" pageScale="1" pageWidth="827" pageHeight="1169" math="0" shadow="0">
      <root>
        <mxCell id="0" />
        <mxCell id="1" parent="0" />
        <mxCell id="e5vTrciUdZTCl425_lgJ-6" value="" style="rounded=0;whiteSpace=wrap;html=1;" vertex="1" parent="1">
          <mxGeometry x="630" y="96" width="217" height="1732" as="geometry" />
        </mxCell>
        <mxCell id="e5vTrciUdZTCl425_lgJ-43" value="" style="ellipse;whiteSpace=wrap;html=1;aspect=fixed;fillColor=#FFFFFF;strokeColor=#000000;" vertex="1" parent="1">
          <mxGeometry x="716.25" y="1740.75" width="44.5" height="44.5" as="geometry" />
        </mxCell>
        <mxCell id="e5vTrciUdZTCl425_lgJ-16" value="" style="rounded=0;whiteSpace=wrap;html=1;" vertex="1" parent="1">
          <mxGeometry x="-21" y="96" width="217" height="1732" as="geometry" />
        </mxCell>
        <mxCell id="e5vTrciUdZTCl425_lgJ-2" value="" style="rounded=0;whiteSpace=wrap;html=1;" vertex="1" parent="1">
          <mxGeometry x="196" y="96" width="217" height="1732" as="geometry" />
        </mxCell>
        <mxCell id="e5vTrciUdZTCl425_lgJ-3" value="&lt;font style=&quot;font-size: 18px;&quot;&gt;Отдел по работе с проектами&lt;/font&gt;" style="rounded=0;whiteSpace=wrap;html=1;" vertex="1" parent="1">
          <mxGeometry x="196" y="96" width="217" height="67" as="geometry" />
        </mxCell>
        <mxCell id="e5vTrciUdZTCl425_lgJ-4" value="" style="rounded=0;whiteSpace=wrap;html=1;" vertex="1" parent="1">
          <mxGeometry x="413" y="96" width="217" height="1732" as="geometry" />
        </mxCell>
        <mxCell id="e5vTrciUdZTCl425_lgJ-5" value="&lt;font style=&quot;font-size: 18px;&quot;&gt;Архив хранения данных&lt;/font&gt;" style="rounded=0;whiteSpace=wrap;html=1;" vertex="1" parent="1">
          <mxGeometry x="413" y="96" width="217" height="67" as="geometry" />
        </mxCell>
        <mxCell id="e5vTrciUdZTCl425_lgJ-7" value="&lt;font style=&quot;font-size: 18px;&quot;&gt;Отдел по работе с клиентами&lt;/font&gt;" style="rounded=0;whiteSpace=wrap;html=1;" vertex="1" parent="1">
          <mxGeometry x="630" y="96" width="217" height="67" as="geometry" />
        </mxCell>
        <mxCell id="e5vTrciUdZTCl425_lgJ-8" value="" style="ellipse;whiteSpace=wrap;html=1;aspect=fixed;fillColor=#000000;" vertex="1" parent="1">
          <mxGeometry x="717.5" y="182" width="42" height="42" as="geometry" />
        </mxCell>
        <mxCell id="e5vTrciUdZTCl425_lgJ-10" value="Оформить заказ на выполнение проекта" style="rounded=1;whiteSpace=wrap;html=1;" vertex="1" parent="1">
          <mxGeometry x="679" y="284" width="120" height="60" as="geometry" />
        </mxCell>
        <mxCell id="e5vTrciUdZTCl425_lgJ-11" value="Создание проекта в базе данных" style="rounded=1;whiteSpace=wrap;html=1;" vertex="1" parent="1">
          <mxGeometry x="467" y="402" width="120" height="60" as="geometry" />
        </mxCell>
        <mxCell id="e5vTrciUdZTCl425_lgJ-12" value="Пользователь 3 уровня решает, есть ли необходимость делить проект на задачи" style="rounded=1;whiteSpace=wrap;html=1;" vertex="1" parent="1">
          <mxGeometry x="244.5" y="518" width="120" height="81" as="geometry" />
        </mxCell>
        <mxCell id="e5vTrciUdZTCl425_lgJ-13" value="" style="rhombus;whiteSpace=wrap;html=1;" vertex="1" parent="1">
          <mxGeometry x="264.5" y="630" width="80" height="80" as="geometry" />
        </mxCell>
        <mxCell id="e5vTrciUdZTCl425_lgJ-14" value="Создание проекта в базе данных" style="rounded=1;whiteSpace=wrap;html=1;" vertex="1" parent="1">
          <mxGeometry x="27.5" y="1405" width="120" height="60" as="geometry" />
        </mxCell>
        <mxCell id="e5vTrciUdZTCl425_lgJ-15" value="&lt;font style=&quot;font-size: 18px;&quot;&gt;Архив хранения данных&lt;/font&gt;" style="rounded=0;whiteSpace=wrap;html=1;" vertex="1" parent="1">
          <mxGeometry x="-21" y="96" width="217" height="67" as="geometry" />
        </mxCell>
        <mxCell id="e5vTrciUdZTCl425_lgJ-17" value="Создание задач, связанных с определенным проектом" style="rounded=1;whiteSpace=wrap;html=1;" vertex="1" parent="1">
          <mxGeometry x="461.5" y="788" width="120" height="60" as="geometry" />
        </mxCell>
        <mxCell id="e5vTrciUdZTCl425_lgJ-18" value="Пользователь 2 уровня решает, есть ли необходимость делить задачи на подзадачи" style="rounded=1;whiteSpace=wrap;html=1;" vertex="1" parent="1">
          <mxGeometry x="244.5" y="902" width="120" height="81" as="geometry" />
        </mxCell>
        <mxCell id="e5vTrciUdZTCl425_lgJ-19" value="" style="rhombus;whiteSpace=wrap;html=1;" vertex="1" parent="1">
          <mxGeometry x="264.5" y="1028" width="80" height="80" as="geometry" />
        </mxCell>
        <mxCell id="e5vTrciUdZTCl425_lgJ-20" value="Создание подзадач, связанных с определенными задачами" style="rounded=1;whiteSpace=wrap;html=1;" vertex="1" parent="1">
          <mxGeometry x="461.5" y="1231" width="120" height="60" as="geometry" />
        </mxCell>
        <mxCell id="e5vTrciUdZTCl425_lgJ-22" value="" style="endArrow=classic;html=1;rounded=0;exitX=0;exitY=0.5;exitDx=0;exitDy=0;" edge="1" parent="1" source="e5vTrciUdZTCl425_lgJ-19" target="e5vTrciUdZTCl425_lgJ-14">
          <mxGeometry width="50" height="50" relative="1" as="geometry">
            <mxPoint x="120" y="1196" as="sourcePoint" />
            <mxPoint x="170" y="1146" as="targetPoint" />
          </mxGeometry>
        </mxCell>
        <mxCell id="e5vTrciUdZTCl425_lgJ-48" value="Необходимости нет" style="edgeLabel;html=1;align=center;verticalAlign=middle;resizable=0;points=[];" vertex="1" connectable="0" parent="e5vTrciUdZTCl425_lgJ-22">
          <mxGeometry x="-0.7021" y="1" relative="1" as="geometry">
            <mxPoint x="1" as="offset" />
          </mxGeometry>
        </mxCell>
        <mxCell id="e5vTrciUdZTCl425_lgJ-24" value="" style="rounded=0;whiteSpace=wrap;html=1;fillColor=#000000;" vertex="1" parent="1">
          <mxGeometry x="482.5" y="1180" width="78" height="8" as="geometry" />
        </mxCell>
        <mxCell id="e5vTrciUdZTCl425_lgJ-25" value="" style="endArrow=classic;html=1;rounded=0;exitX=1;exitY=0.5;exitDx=0;exitDy=0;entryX=0.5;entryY=0;entryDx=0;entryDy=0;" edge="1" parent="1" source="e5vTrciUdZTCl425_lgJ-19" target="e5vTrciUdZTCl425_lgJ-24">
          <mxGeometry width="50" height="50" relative="1" as="geometry">
            <mxPoint x="466" y="1127" as="sourcePoint" />
            <mxPoint x="516" y="1077" as="targetPoint" />
          </mxGeometry>
        </mxCell>
        <mxCell id="e5vTrciUdZTCl425_lgJ-47" value="Необходимость есть" style="edgeLabel;html=1;align=center;verticalAlign=middle;resizable=0;points=[];" vertex="1" connectable="0" parent="e5vTrciUdZTCl425_lgJ-25">
          <mxGeometry x="-0.4037" y="2" relative="1" as="geometry">
            <mxPoint as="offset" />
          </mxGeometry>
        </mxCell>
        <mxCell id="e5vTrciUdZTCl425_lgJ-26" value="" style="endArrow=classic;html=1;rounded=0;exitX=0.5;exitY=1;exitDx=0;exitDy=0;entryX=0.5;entryY=0;entryDx=0;entryDy=0;" edge="1" parent="1" source="e5vTrciUdZTCl425_lgJ-24" target="e5vTrciUdZTCl425_lgJ-20">
          <mxGeometry width="50" height="50" relative="1" as="geometry">
            <mxPoint x="462" y="1421" as="sourcePoint" />
            <mxPoint x="512" y="1371" as="targetPoint" />
          </mxGeometry>
        </mxCell>
        <mxCell id="e5vTrciUdZTCl425_lgJ-27" value="" style="rounded=0;whiteSpace=wrap;html=1;fillColor=#000000;" vertex="1" parent="1">
          <mxGeometry x="482.5" y="750" width="78" height="8" as="geometry" />
        </mxCell>
        <mxCell id="e5vTrciUdZTCl425_lgJ-28" value="" style="endArrow=classic;html=1;rounded=0;" edge="1" parent="1" source="e5vTrciUdZTCl425_lgJ-8" target="e5vTrciUdZTCl425_lgJ-10">
          <mxGeometry width="50" height="50" relative="1" as="geometry">
            <mxPoint x="700" y="577" as="sourcePoint" />
            <mxPoint x="750" y="527" as="targetPoint" />
          </mxGeometry>
        </mxCell>
        <mxCell id="e5vTrciUdZTCl425_lgJ-29" value="" style="endArrow=classic;html=1;rounded=0;exitX=0.5;exitY=1;exitDx=0;exitDy=0;" edge="1" parent="1" source="e5vTrciUdZTCl425_lgJ-10" target="e5vTrciUdZTCl425_lgJ-11">
          <mxGeometry width="50" height="50" relative="1" as="geometry">
            <mxPoint x="688" y="507" as="sourcePoint" />
            <mxPoint x="738" y="457" as="targetPoint" />
          </mxGeometry>
        </mxCell>
        <mxCell id="e5vTrciUdZTCl425_lgJ-30" value="" style="endArrow=classic;html=1;rounded=0;exitX=0.5;exitY=1;exitDx=0;exitDy=0;" edge="1" parent="1" source="e5vTrciUdZTCl425_lgJ-11" target="e5vTrciUdZTCl425_lgJ-12">
          <mxGeometry width="50" height="50" relative="1" as="geometry">
            <mxPoint x="516" y="602" as="sourcePoint" />
            <mxPoint x="566" y="552" as="targetPoint" />
          </mxGeometry>
        </mxCell>
        <mxCell id="e5vTrciUdZTCl425_lgJ-31" value="" style="endArrow=classic;html=1;rounded=0;" edge="1" parent="1" source="e5vTrciUdZTCl425_lgJ-12" target="e5vTrciUdZTCl425_lgJ-13">
          <mxGeometry width="50" height="50" relative="1" as="geometry">
            <mxPoint x="216" y="686" as="sourcePoint" />
            <mxPoint x="266" y="636" as="targetPoint" />
          </mxGeometry>
        </mxCell>
        <mxCell id="e5vTrciUdZTCl425_lgJ-32" value="" style="endArrow=classic;html=1;rounded=0;exitX=1;exitY=0.5;exitDx=0;exitDy=0;entryX=0.5;entryY=0;entryDx=0;entryDy=0;" edge="1" parent="1" source="e5vTrciUdZTCl425_lgJ-13" target="e5vTrciUdZTCl425_lgJ-27">
          <mxGeometry width="50" height="50" relative="1" as="geometry">
            <mxPoint x="544" y="690" as="sourcePoint" />
            <mxPoint x="594" y="640" as="targetPoint" />
          </mxGeometry>
        </mxCell>
        <mxCell id="e5vTrciUdZTCl425_lgJ-45" value="Необходимость есть" style="edgeLabel;html=1;align=center;verticalAlign=middle;resizable=0;points=[];" vertex="1" connectable="0" parent="e5vTrciUdZTCl425_lgJ-32">
          <mxGeometry x="-0.5965" y="1" relative="1" as="geometry">
            <mxPoint x="10" y="-1" as="offset" />
          </mxGeometry>
        </mxCell>
        <mxCell id="e5vTrciUdZTCl425_lgJ-33" value="" style="endArrow=classic;html=1;rounded=0;" edge="1" parent="1" source="e5vTrciUdZTCl425_lgJ-27" target="e5vTrciUdZTCl425_lgJ-17">
          <mxGeometry width="50" height="50" relative="1" as="geometry">
            <mxPoint x="478" y="994" as="sourcePoint" />
            <mxPoint x="528" y="944" as="targetPoint" />
          </mxGeometry>
        </mxCell>
        <mxCell id="e5vTrciUdZTCl425_lgJ-34" value="" style="endArrow=classic;html=1;rounded=0;exitX=0.5;exitY=1;exitDx=0;exitDy=0;" edge="1" parent="1" source="e5vTrciUdZTCl425_lgJ-17" target="e5vTrciUdZTCl425_lgJ-18">
          <mxGeometry width="50" height="50" relative="1" as="geometry">
            <mxPoint x="498" y="1025" as="sourcePoint" />
            <mxPoint x="548" y="975" as="targetPoint" />
          </mxGeometry>
        </mxCell>
        <mxCell id="e5vTrciUdZTCl425_lgJ-35" value="" style="endArrow=classic;html=1;rounded=0;" edge="1" parent="1" source="e5vTrciUdZTCl425_lgJ-18" target="e5vTrciUdZTCl425_lgJ-19">
          <mxGeometry width="50" height="50" relative="1" as="geometry">
            <mxPoint x="442" y="1063" as="sourcePoint" />
            <mxPoint x="492" y="1013" as="targetPoint" />
          </mxGeometry>
        </mxCell>
        <mxCell id="e5vTrciUdZTCl425_lgJ-36" value="" style="endArrow=classic;html=1;rounded=0;exitX=0;exitY=0.5;exitDx=0;exitDy=0;" edge="1" parent="1" source="e5vTrciUdZTCl425_lgJ-13" target="e5vTrciUdZTCl425_lgJ-14">
          <mxGeometry width="50" height="50" relative="1" as="geometry">
            <mxPoint x="82" y="772" as="sourcePoint" />
            <mxPoint x="132" y="722" as="targetPoint" />
          </mxGeometry>
        </mxCell>
        <mxCell id="e5vTrciUdZTCl425_lgJ-46" value="Необходимости нет" style="edgeLabel;html=1;align=center;verticalAlign=middle;resizable=0;points=[];" vertex="1" connectable="0" parent="e5vTrciUdZTCl425_lgJ-36">
          <mxGeometry x="-0.7998" y="-1" relative="1" as="geometry">
            <mxPoint x="-13" y="-25" as="offset" />
          </mxGeometry>
        </mxCell>
        <mxCell id="e5vTrciUdZTCl425_lgJ-37" value="" style="endArrow=classic;html=1;rounded=0;exitX=0.5;exitY=1;exitDx=0;exitDy=0;" edge="1" parent="1" source="e5vTrciUdZTCl425_lgJ-20" target="e5vTrciUdZTCl425_lgJ-14">
          <mxGeometry width="50" height="50" relative="1" as="geometry">
            <mxPoint x="920" y="1331" as="sourcePoint" />
            <mxPoint x="970" y="1281" as="targetPoint" />
          </mxGeometry>
        </mxCell>
        <mxCell id="e5vTrciUdZTCl425_lgJ-38" value="Проверка готовности проекта" style="rounded=1;whiteSpace=wrap;html=1;" vertex="1" parent="1">
          <mxGeometry x="245" y="1539" width="120" height="60" as="geometry" />
        </mxCell>
        <mxCell id="e5vTrciUdZTCl425_lgJ-39" value="" style="endArrow=classic;html=1;rounded=0;exitX=0.5;exitY=1;exitDx=0;exitDy=0;entryX=0.5;entryY=0;entryDx=0;entryDy=0;" edge="1" parent="1" source="e5vTrciUdZTCl425_lgJ-14" target="e5vTrciUdZTCl425_lgJ-38">
          <mxGeometry width="50" height="50" relative="1" as="geometry">
            <mxPoint x="247" y="1507" as="sourcePoint" />
            <mxPoint x="297" y="1457" as="targetPoint" />
          </mxGeometry>
        </mxCell>
        <mxCell id="e5vTrciUdZTCl425_lgJ-40" value="Закрытие заявки" style="rounded=1;whiteSpace=wrap;html=1;" vertex="1" parent="1">
          <mxGeometry x="679" y="1625" width="120" height="60" as="geometry" />
        </mxCell>
        <mxCell id="e5vTrciUdZTCl425_lgJ-41" value="" style="endArrow=classic;html=1;rounded=0;exitX=0.5;exitY=1;exitDx=0;exitDy=0;" edge="1" parent="1" source="e5vTrciUdZTCl425_lgJ-38" target="e5vTrciUdZTCl425_lgJ-40">
          <mxGeometry width="50" height="50" relative="1" as="geometry">
            <mxPoint x="508" y="1573" as="sourcePoint" />
            <mxPoint x="558" y="1523" as="targetPoint" />
          </mxGeometry>
        </mxCell>
        <mxCell id="e5vTrciUdZTCl425_lgJ-42" value="" style="ellipse;whiteSpace=wrap;html=1;aspect=fixed;fillColor=#000000;strokeColor=#FFFFFF;" vertex="1" parent="1">
          <mxGeometry x="717.5" y="1742" width="42" height="42" as="geometry" />
        </mxCell>
        <mxCell id="e5vTrciUdZTCl425_lgJ-44" value="" style="endArrow=classic;html=1;rounded=0;" edge="1" parent="1" source="e5vTrciUdZTCl425_lgJ-40" target="e5vTrciUdZTCl425_lgJ-42">
          <mxGeometry width="50" height="50" relative="1" as="geometry">
            <mxPoint x="671" y="1749" as="sourcePoint" />
            <mxPoint x="721" y="1699" as="targetPoint" />
          </mxGeometry>
        </mxCell>
      </root>
    </mxGraphModel>
  </diagram>
</mxfile>
